<svg width="230" height="38" viewBox="0 0 230 38" fill="none" xmlns="http://www.w3.org/2000/svg">
<g clip-path="url(#clip0_301_10914)">
<path d="M3.41814 31.6945V22.2105H0.913269V17.3248H3.41814V12.2476H9.32963V17.3248H14.2392V22.2105H9.32963V30.7366C9.32963 32.0777 9.93079 32.6525 11.2333 32.6525C12.3355 32.6525 13.3374 32.3651 14.139 31.9819V36.5802C12.9366 37.2508 11.4337 37.7298 9.42982 37.7298C5.82281 37.7298 3.41814 36.3886 3.41814 31.6945Z" fill="#333333"/>
<path d="M17.0435 27.3836C17.0435 21.6357 21.3519 16.9417 27.3636 16.9417C34.3772 16.9417 37.5834 22.1147 37.5834 27.8626C37.5834 28.3416 37.5834 28.8206 37.4832 29.3954H22.955C23.5562 31.9819 25.4599 33.3231 28.0649 33.3231C30.0688 33.3231 31.4716 32.7483 33.1749 31.3113L36.5815 34.1853C34.5776 36.4844 31.7721 37.9214 28.0649 37.9214C21.6525 37.8256 17.0435 33.6105 17.0435 27.3836ZM31.7721 25.8509C31.3714 23.2643 29.8684 21.6357 27.3636 21.6357C24.8587 21.6357 23.2556 23.3601 22.8548 25.8509H31.7721Z" fill="#333333"/>
<path d="M46.401 27.1919L39.2872 17.3247H45.6996L49.6072 23.1684L53.5148 17.3247H59.7269L52.6131 27.0961L60.0275 37.3465H53.615L49.4068 31.1196L45.1987 37.3465H38.9866L46.401 27.1919Z" fill="#333333"/>
<path d="M63.6342 17.3248H69.5457V20.1988C70.9484 18.4744 72.6517 16.9417 75.6576 16.9417C80.1664 16.9417 82.7714 19.8156 82.7714 24.4139V37.3466H76.8599V26.2341C76.8599 23.5517 75.5574 22.1147 73.2529 22.1147C70.9484 22.1147 69.5457 23.4559 69.5457 26.2341V37.4424H63.6342V17.3248Z" fill="#333333"/>
<path d="M86.9806 27.3836C86.9806 21.6357 91.7899 16.9417 98.4028 16.9417C104.915 16.9417 109.725 21.54 109.725 27.3836C109.725 33.1315 104.915 37.8256 98.3026 37.8256C91.7899 37.8256 86.9806 33.2273 86.9806 27.3836ZM103.813 27.3836C103.813 24.4139 101.609 21.8273 98.3026 21.8273C94.896 21.8273 92.8921 24.3181 92.8921 27.3836C92.8921 30.3534 95.0964 32.9399 98.4028 32.9399C101.809 32.9399 103.813 30.4492 103.813 27.3836Z" fill="#333333"/>
<path d="M113.932 17.3248H119.843V20.1988C121.246 18.4744 123.05 16.9417 126.055 16.9417C128.761 16.9417 130.865 18.0912 131.967 20.103C133.77 18.0912 135.975 16.9417 138.88 16.9417C143.289 16.9417 145.994 19.5282 145.994 24.3181V37.3466H140.083V26.2341C140.083 23.5517 138.88 22.1147 136.576 22.1147C134.372 22.1147 132.969 23.4559 132.969 26.2341V37.4424H127.057V26.2341C127.057 23.5517 125.855 22.1147 123.551 22.1147C121.346 22.1147 119.944 23.4559 119.944 26.2341V37.4424H114.032V17.3248H113.932Z" fill="#333333"/>
<path d="M149.803 31.5988C149.803 27.1921 153.309 25.1803 158.219 25.1803C160.323 25.1803 161.826 25.5635 163.329 26.0425V25.6593C163.329 23.2644 161.826 22.019 158.82 22.019C156.516 22.019 154.912 22.4022 153.009 23.0728L151.506 18.7619C153.81 17.8039 156.115 17.1333 159.622 17.1333C162.828 17.1333 165.233 17.9955 166.735 19.3367C168.339 20.8694 169.04 23.0728 169.04 25.7551V37.3467H163.329V35.1433C161.926 36.6761 159.922 37.7299 157.017 37.7299C153.109 37.7299 149.803 35.6223 149.803 31.5988ZM163.529 30.3534V29.2996C162.527 28.8206 161.225 28.5333 159.722 28.5333C157.217 28.5333 155.614 29.4912 155.614 31.4072C155.614 32.94 156.916 33.8021 158.82 33.8021C161.626 33.8021 163.529 32.3652 163.529 30.3534Z" fill="#333333"/>
<path d="M174.25 17.3247H180.161V21.3482C181.364 18.5701 183.367 16.7499 186.874 16.9415V22.881H186.574C182.666 22.881 180.161 25.1802 180.161 29.9701V37.3465H174.25V17.3247Z" fill="#333333"/>
<path d="M191.582 31.6945V22.2105H189.078V17.3248H191.582V12.2476H197.494V17.3248H202.404V22.2105H197.494V30.7366C197.494 32.0777 198.095 32.6525 199.398 32.6525C200.5 32.6525 201.502 32.3651 202.303 31.9819V36.5802C201.101 37.2508 199.598 37.7298 197.594 37.7298C193.987 37.7298 191.582 36.3886 191.582 31.6945Z" fill="#333333"/>
<path d="M229.557 15.6007L226.551 20.4864L220.539 17.1335V23.8394H214.528V17.1335L208.516 20.4864L205.51 15.6007L211.622 12.2478L205.61 8.89487L208.516 4.00918L214.528 7.36211V0.65625H220.539V7.36211L226.551 4.00918L229.457 8.89487L223.445 12.2478L229.557 15.6007Z" fill="#333333"/>
<g clip-path="url(#clip1_301_10914)">
<path d="M132.175 19.4967C129.626 18.6583 124.991 18.929 121.958 19.5453C118.58 20.2317 114.833 21.3761 112.599 23.3095C112.599 23.3095 111.786 22.4555 111.55 20.0928C111.391 18.5237 111.522 16.4249 110.629 15.7236C107.744 13.4464 106.717 20.4316 106.717 20.4316L105.041 20.0606C105.041 20.0606 105.174 8.86222 113.66 5.50555C123.646 1.55638 133.198 10.7855 132.175 19.4967Z" fill="#FF1010"/>
<path d="M132.175 19.4967C129.626 18.6583 124.991 18.929 121.958 19.5453C118.58 20.2317 114.833 21.3761 112.599 23.3095C112.599 23.3095 111.786 22.4555 111.55 20.0928C111.391 18.5237 111.522 16.4249 110.629 15.7236C107.744 13.4464 106.717 20.4316 106.717 20.4316L105.041 20.0606C105.041 20.0606 105.174 8.86222 113.66 5.50555C123.646 1.55638 133.198 10.7855 132.175 19.4967Z" fill="url(#paint0_linear_301_10914)"/>
<path d="M106.302 20.3339L106.717 20.4258C106.717 20.4258 107.737 13.4414 110.628 15.7177C111.521 16.4191 111.391 18.5237 111.549 20.087C111.785 22.4497 112.598 23.3037 112.598 23.3037C112.942 23.0089 113.307 22.7349 113.689 22.4942C113.216 21.9254 112.725 20.827 112.533 19.1913C112.235 16.6301 111.841 14.0168 109.307 14.0808C106.928 14.1536 106.395 19.1803 106.302 20.3339ZM113.66 5.50554C126.513 2.87213 132.175 19.5025 132.175 19.5025C133.198 10.7854 123.646 1.55638 113.66 5.50554Z" fill="#F32300"/>
<path d="M111.578 22.8441C111.708 23.542 112.379 24.0071 113.077 23.8775C113.245 23.8489 113.402 23.7863 113.549 23.6897C115.736 22.2888 119.015 21.1723 122.486 20.3846C126.025 19.5817 128.814 19.5245 131.102 20.1323C131.79 20.3232 132.503 19.9136 132.688 19.2264C132.724 19.0974 132.736 18.9657 132.735 18.8298C132.673 17.5847 132.453 16.3491 132.074 15.1587C131.736 14.0987 130.914 13.2637 129.856 12.9157C127.933 12.2942 125.393 11.7442 120.76 12.7715C116.358 13.7501 113.347 15.5341 112.095 16.9505C111.474 17.6492 111.16 18.5666 111.222 19.5043C111.249 20.015 111.483 22.3188 111.578 22.8441Z" fill="#E9F1F9"/>
<path d="M111.531 22.5429C111.549 22.6706 111.563 22.7751 111.578 22.844C111.708 23.542 112.379 24.0071 113.077 23.8774C113.245 23.8489 113.402 23.7863 113.549 23.6896C115.736 22.2887 119.009 21.173 122.486 20.3845C126.025 19.5816 128.814 19.5245 131.107 20.1314C131.795 20.3223 132.504 19.9193 132.695 19.2313C132.73 19.1023 132.747 18.9641 132.741 18.829C132.673 17.5846 132.453 16.349 132.074 15.1586C131.736 14.0986 130.914 13.2694 129.856 12.9214C129.442 12.7881 128.998 12.6529 128.51 12.5414C128.51 12.5414 130.636 15.4118 129.925 17.1987C129.404 18.5048 126.909 17.0618 121.277 18.4369C117.825 19.2753 113.839 20.8065 111.531 22.5429Z" fill="#DAE5EF"/>
<path d="M105.919 24.282C104.472 24.4772 103.142 23.463 102.946 22.0167C102.751 20.5703 103.765 19.2396 105.212 19.0444C106.658 18.8492 107.989 19.8634 108.184 21.3098C108.379 22.7561 107.365 24.0868 105.919 24.282Z" fill="#E9F1F9"/>
<path d="M102.989 22.2472C103.3 23.6716 104.705 24.5758 106.13 24.2711C107.554 23.9606 108.459 22.5556 108.154 21.1304C108.152 21.113 108.149 21.0956 108.141 21.0789C108.123 20.9926 108.101 20.9129 108.073 20.8339C108.235 22.166 106.924 23.2356 105.973 23.4172C104.919 23.6245 103.375 23.2653 102.943 21.9933C102.955 22.0804 102.972 22.1609 102.989 22.2472Z" fill="#DAE5EF"/>
</g>
</g>
<defs>
<linearGradient id="paint0_linear_301_10914" x1="136.952" y1="27.6094" x2="121.896" y2="37.749" gradientUnits="userSpaceOnUse">
<stop stop-color="#FF300E"/>
<stop offset="1" stop-color="#FF7C31"/>
</linearGradient>
<clipPath id="clip0_301_10914">
<rect width="230" height="38" fill="white"/>
</clipPath>
<clipPath id="clip1_301_10914">
<rect width="30" height="30" fill="white" transform="matrix(-0.991015 0.133752 0.133752 0.991015 129.859 -2.87109)"/>
</clipPath>
</defs>
</svg>
